PathFileType	4	(X/Y/Z)	Patient4_TMGait_0pt8_01_right_47.trc.trc
DataRate	CameraRate	NumFrames	NumMarkers	Units	OrigDataRate	OrigDataStartFrame	OrigNumFrames
88.607594936709	88.607594936709	4	33	mm	88.607594936709	53	       141
Frame#	Time	Sacral			L.Shoulder			Chest			R.Shoulder			Neck			R.ASIS			L.ASIS			R.Thigh.Superior			R.Thigh.Lateral			R.Thigh.Inferior			R.Patella			L.Thigh.Superior			L.Thigh.Lateral			L.Thigh.Inferior			L.Patella			L.Shank.Superior			L.Shank.Lateral			L.Shank.Inferior			R.Shank.Superior			R.Shank.Lateral			R.Shank.Inferior			R.Heel			R.Midfoot.Superior			R.Midfoot.Lateral			R.Toe			L.Heel			L.Midfoot.Lateral			L.Midfoot.Superior			L.Toe			L.Elbow			L.Wrist			R.Elbow			R.Wrist			
		X1	Y1	Z1	X2	Y2	Z2	X3	Y3	Z3	X4	Y4	Z4	X5	Y5	Z5	X6	Y6	Z6	X7	Y7	Z7	X8	Y8	Z8	X9	Y9	Z9	X10	Y10	Z10	X11	Y11	Z11	X12	Y12	Z12	X13	Y13	Z13	X14	Y14	Z14	X15	Y15	Z15	X16	Y16	Z16	X17	Y17	Z17	X18	Y18	Z18	X19	Y19	Z19	X20	Y20	Z20	X21	Y21	Z21	X22	Y22	Z22	X23	Y23	Z23	X24	Y24	Z24	X25	Y25	Z25	X26	Y26	Z26	X27	Y27	Z27	X28	Y28	Z28	X29	Y29	Z29	X30	Y30	Z30	X31	Y31	Z31	X32	Y32	Z32	X33	Y33	Z33	

53	53.486857142857	883.414561803238	1009.346392692583	538.646403108672	1060.867979451295	1428.431233109325	340.996236442004	1171.607251818238	1359.932772100603	497.865634778336	1101.881896352224	1437.719694850117	675.980296174453	1057.672943147049	1494.389573754875	496.617960478702	1112.852547922943	946.549471314720	650.359384935078	1089.660410461710	959.440769510019	375.766366356727	1141.979296172341	739.994212067171	622.733101801653	1052.032930902594	635.054794548628	681.103888545734	1125.354704601121	578.178134824921	602.378576745308	1117.992322932375	490.449368924102	606.767294560889	1178.439526259424	786.046829177467	404.143929147606	1139.515267726537	659.706238795776	321.822313174200	1247.994692190660	601.096314387593	379.963198299901	1266.690911962772	514.349359276795	371.277785729985	1208.416738962658	442.279012288529	361.404258780638	1073.850211182224	381.052879369945	313.725654202509	1084.022661747020	248.789154060741	361.804595708877	1087.070547422182	403.721638301878	612.823976873253	1010.031674668766	302.816437538058	671.287557612564	1049.483507840030	206.539315338589	607.672855803752	908.719367040078	45.164929478186	572.639541295239	1079.592869057992	97.643000359375	614.899226025489	989.498092310608	37.925748352461	650.358671323436	1197.825705802684	43.053722039514	647.508135305622	908.008210672532	155.747098154392	401.458867358260	968.096616172111	121.695779382247	317.509518679211	1072.017140181902	142.222312885230	337.064158947787	1161.963565574122	43.263290396006	300.407152383919	1033.559346615791	1067.930000307917	250.455824415174	1121.000775825814	821.020367554035	253.020626059617	1116.379423627086	1087.397684327942	795.493307273793	1340.901370570299	969.810972757133	750.768147047957	
54	53.498142857143	882.588178017371	1009.389910147718	540.290878308520	1059.364848371541	1427.791907269073	341.107600726677	1171.002180078438	1359.488584500090	497.369404980249	1102.632830631025	1437.728687768608	675.835411134160	1057.359816935993	1494.117588490911	496.599351574660	1112.295524610582	946.067082224316	650.350123247564	1087.195474994058	959.314264345406	375.785012934569	1138.770390203690	738.875847679090	621.944033008168	1048.107540212832	634.715264269018	681.218197029887	1119.979541508734	577.039005402836	602.043592688716	1111.462560919247	489.601753024924	606.492700835792	1177.366694402176	788.174897076206	403.890053009094	1139.780731985081	661.102949238826	321.885442207258	1249.020139069709	604.133295184283	379.535094809740	1269.559177145419	518.772586223453	370.769490027691	1215.032967807796	445.228924256094	360.763710405162	1084.357425791174	375.943382485350	313.707178052514	1103.392704197841	244.213006760481	361.064306096347	1080.122095926012	403.029021506736	612.662164310703	1002.635593090530	302.579310299590	671.331537776613	1041.225197968513	206.113598876901	607.560014611825	899.608172606268	45.072766675208	572.739189700502	1070.392383522508	97.492355636963	614.729498328869	980.364010547344	37.868354429662	650.451197646625	1188.672637855969	43.033724220186	647.521397869280	934.311219332129	139.653082419978	401.909715601297	995.537327039506	110.171106937796	317.081894582284	1098.127015790693	137.287642183116	335.758666456939	1194.012641239110	44.616285835284	297.488498737615	1026.141825983111	1067.294595090922	252.209499676596	1098.199405239253	815.684360777192	254.997415207935	1128.917091987452	1088.781473925852	795.105797306698	1361.919108806209	993.318073123635	744.995276958056	
55	53.509428571429	881.837227440325	1009.374059774351	541.718977594289	1057.965518156256	1427.130316784833	341.136205754935	1170.488189763619	1358.944393660149	496.764990735250	1103.481566484363	1437.620711912042	675.569907478065	1057.112963493497	1493.753512558960	496.510580902766	1111.792849248692	945.490529508792	650.180505244434	1084.974081537331	959.084819586800	375.615983543102	1135.546080457165	737.674302785013	621.107465249697	1044.103202881666	634.334293403843	681.262380912234	1114.514355149563	575.850336033958	601.670136735530	1104.859209560106	488.731568580344	606.205155262395	1175.977769735255	789.697533746077	403.551367885029	1139.431871085899	661.959239844130	321.873661532314	1249.155069508976	606.381123438263	379.249533743412	1271.420485038721	522.641571219758	370.395558664568	1220.849568067448	447.922949858039	360.218983223207	1094.937866788569	370.532625769242	313.451217090913	1122.960389545775	239.974090771538	360.259517543615	1073.084434842426	402.316301962454	612.465281732599	995.177852209658	302.325136800957	671.356727835416	1032.906208349271	205.680714306781	607.441383229262	890.493899653002	44.957686442520	572.853996574008	1061.187119769541	97.349801757588	614.581951606708	971.223426843690	37.805301570199	650.546101006532	1179.519566933685	43.021633682410	647.530061613466	961.758548662823	124.108786164484	401.927376573267	1024.101458370450	99.255341290390	316.456217227466	1124.788597538434	133.007460813164	334.505401245277	1226.369039989467	47.073678328114	295.074876949281	1018.121565447576	1066.926093419436	253.633279980257	1075.880752838350	811.946949688691	256.947232256418	1141.771187829657	1090.585913299096	794.364323062153	1381.041416364285	1017.859359530334	739.059900757534	
56	53.520714285714	881.157963444140	1009.306570388074	542.915553701363	1056.670272640058	1426.457755017701	341.078729720983	1170.072867701243	1358.303299248185	496.042961950575	1104.443044753992	1437.399916468076	675.173514975999	1056.932854381734	1493.304056846187	496.348702921944	1111.353019738005	944.818681618391	649.839286066512	1082.995461156613	958.745830823147	375.275403705801	1132.327430542143	736.394590433453	620.264756422706	1040.005270465760	633.926388527358	681.244927251569	1108.960114395281	574.623603608488	601.287598195079	1098.178287800163	487.850394486401	605.917328261011	1174.295540767142	790.590908803685	403.155767583668	1138.505313687258	662.295726010021	321.740961738540	1248.439328726530	607.819219506671	379.111698093815	1272.327612755856	525.939388330355	370.171278884365	1225.870183700810	450.368685142565	359.806962544908	1105.610854474974	364.983211068980	312.923033797679	1142.548962296187	236.278718863139	359.456056028956	1065.952023482294	401.602152860173	612.245212384131	987.648706106873	302.068571248478	671.368455813865	1024.531548240212	205.255472841218	607.320698531997	881.378197460928	44.828574868260	572.982895297900	1051.986497806885	97.223354471933	614.467509393688	962.079315914642	37.740495112972	650.639325297518	1170.373490228000	43.014801346400	647.540397769987	990.050284573048	109.522934769345	401.484351917962	1053.574087928825	89.273085203257	315.690929169964	1151.766402532221	129.625955186458	333.421221942477	1258.749235237562	50.818608144346	293.465923402162	1009.544747640522	1066.875772400724	254.725011913675	1054.248224147302	809.635405703156	258.879933733334	1154.895314626971	1092.841163556057	793.288970595228	1398.162382186345	1043.114868578915	733.038881729265	
